<svg width="209" height="48" viewBox="0 0 209 48" fill="none" xmlns="http://www.w3.org/2000/svg">
<path d="M57.6881 31.18C56.9561 31.18 56.2841 31.09 55.6721 30.91C55.0601 30.718 54.5081 30.436 54.0161 30.064C53.5241 29.692 53.0861 29.242 52.7021 28.714L54.2321 26.986C54.8201 27.802 55.3961 28.366 55.9601 28.678C56.5241 28.99 57.1601 29.146 57.8681 29.146C58.2761 29.146 58.6481 29.086 58.9841 28.966C59.3201 28.834 59.5841 28.66 59.7761 28.444C59.9681 28.216 60.0641 27.958 60.0641 27.67C60.0641 27.466 60.0221 27.28 59.9381 27.112C59.8661 26.932 59.7521 26.776 59.5961 26.644C59.4401 26.5 59.2481 26.368 59.0201 26.248C58.7921 26.128 58.5341 26.026 58.2461 25.942C57.9581 25.858 57.6401 25.78 57.2921 25.708C56.6321 25.576 56.0561 25.402 55.5641 25.186C55.0721 24.958 54.6581 24.682 54.3221 24.358C53.9861 24.022 53.7401 23.65 53.5841 23.242C53.4281 22.822 53.3501 22.348 53.3501 21.82C53.3501 21.292 53.4641 20.806 53.6921 20.362C53.9321 19.918 54.2561 19.534 54.6641 19.21C55.0721 18.886 55.5461 18.634 56.0861 18.454C56.6261 18.274 57.2081 18.184 57.8321 18.184C58.5401 18.184 59.1701 18.268 59.7221 18.436C60.2861 18.604 60.7781 18.856 61.1981 19.192C61.6301 19.516 61.9841 19.912 62.2601 20.38L60.7121 21.91C60.4721 21.538 60.2021 21.232 59.9021 20.992C59.6021 20.74 59.2781 20.554 58.9301 20.434C58.5821 20.302 58.2161 20.236 57.8321 20.236C57.4001 20.236 57.0221 20.296 56.6981 20.416C56.3861 20.536 56.1401 20.71 55.9601 20.938C55.7801 21.154 55.6901 21.418 55.6901 21.73C55.6901 21.97 55.7441 22.186 55.8521 22.378C55.9601 22.558 56.1101 22.72 56.3021 22.864C56.5061 23.008 56.7641 23.134 57.0761 23.242C57.3881 23.35 57.7421 23.446 58.1381 23.53C58.7981 23.662 59.3921 23.842 59.9201 24.07C60.4481 24.286 60.8981 24.55 61.2701 24.862C61.6421 25.162 61.9241 25.51 62.1161 25.906C62.3081 26.29 62.4041 26.722 62.4041 27.202C62.4041 28.03 62.2061 28.744 61.8101 29.344C61.4261 29.932 60.8801 30.388 60.1721 30.712C59.4641 31.024 58.6361 31.18 57.6881 31.18Z" fill="#151B28"/>
<path d="M68.9193 31.18C67.9713 31.18 67.1253 30.97 66.3813 30.55C65.6373 30.118 65.0493 29.53 64.6173 28.786C64.1853 28.042 63.9693 27.196 63.9693 26.248C63.9693 25.3 64.1853 24.454 64.6173 23.71C65.0493 22.966 65.6373 22.384 66.3813 21.964C67.1253 21.532 67.9713 21.316 68.9193 21.316C69.8553 21.316 70.6953 21.532 71.4393 21.964C72.1833 22.384 72.7653 22.966 73.1853 23.71C73.6173 24.454 73.8333 25.3 73.8333 26.248C73.8333 27.196 73.6173 28.042 73.1853 28.786C72.7653 29.53 72.1833 30.118 71.4393 30.55C70.6953 30.97 69.8553 31.18 68.9193 31.18ZM68.9193 29.218C69.4353 29.218 69.8913 29.086 70.2873 28.822C70.6953 28.558 71.0133 28.204 71.2413 27.76C71.4813 27.316 71.5953 26.812 71.5833 26.248C71.5953 25.672 71.4813 25.162 71.2413 24.718C71.0133 24.274 70.6953 23.926 70.2873 23.674C69.8913 23.41 69.4353 23.278 68.9193 23.278C68.4033 23.278 67.9353 23.41 67.5153 23.674C67.1073 23.926 66.7893 24.28 66.5613 24.736C66.3333 25.18 66.2193 25.684 66.2193 26.248C66.2193 26.812 66.3333 27.316 66.5613 27.76C66.7893 28.204 67.1073 28.558 67.5153 28.822C67.9353 29.086 68.4033 29.218 68.9193 29.218Z" fill="#151B28"/>
<path d="M79.8817 31.18C78.9937 31.18 78.1957 30.964 77.4877 30.532C76.7797 30.1 76.2217 29.512 75.8137 28.768C75.4057 28.024 75.2017 27.184 75.2017 26.248C75.2017 25.312 75.4057 24.472 75.8137 23.728C76.2217 22.984 76.7797 22.396 77.4877 21.964C78.1957 21.532 78.9937 21.316 79.8817 21.316C80.7337 21.316 81.5077 21.478 82.2037 21.802C82.8997 22.126 83.4397 22.576 83.8237 23.152L82.5997 24.628C82.4197 24.376 82.1917 24.148 81.9157 23.944C81.6397 23.74 81.3457 23.578 81.0337 23.458C80.7217 23.338 80.4097 23.278 80.0977 23.278C79.5697 23.278 79.0957 23.41 78.6757 23.674C78.2677 23.926 77.9437 24.28 77.7037 24.736C77.4637 25.18 77.3437 25.684 77.3437 26.248C77.3437 26.812 77.4637 27.316 77.7037 27.76C77.9557 28.204 78.2917 28.558 78.7117 28.822C79.1317 29.086 79.5997 29.218 80.1157 29.218C80.4277 29.218 80.7277 29.17 81.0157 29.074C81.3157 28.966 81.5977 28.816 81.8617 28.624C82.1257 28.432 82.3717 28.192 82.5997 27.904L83.8237 29.398C83.4157 29.926 82.8517 30.358 82.1317 30.694C81.4237 31.018 80.6737 31.18 79.8817 31.18Z" fill="#151B28"/>
<path d="M85.7689 31V21.514H87.9829V31H85.7689ZM86.8489 19.498C86.4049 19.498 86.0569 19.39 85.8049 19.174C85.5649 18.946 85.4449 18.628 85.4449 18.22C85.4449 17.836 85.5709 17.524 85.8229 17.284C86.0749 17.044 86.4169 16.924 86.8489 16.924C87.3049 16.924 87.6529 17.038 87.8929 17.266C88.1449 17.482 88.2709 17.8 88.2709 18.22C88.2709 18.592 88.1449 18.898 87.8929 19.138C87.6409 19.378 87.2929 19.498 86.8489 19.498Z" fill="#151B28"/>
<path d="M94.3723 31.18C93.5923 31.18 92.8843 30.964 92.2483 30.532C91.6123 30.1 91.1023 29.512 90.7183 28.768C90.3343 28.024 90.1423 27.178 90.1423 26.23C90.1423 25.282 90.3343 24.436 90.7183 23.692C91.1023 22.948 91.6243 22.366 92.2843 21.946C92.9443 21.526 93.6883 21.316 94.5163 21.316C94.9963 21.316 95.4343 21.388 95.8303 21.532C96.2263 21.664 96.5743 21.856 96.8743 22.108C97.1743 22.36 97.4203 22.648 97.6123 22.972C97.8163 23.296 97.9543 23.644 98.0263 24.016L97.5403 23.89V21.514H99.7723V31H97.5223V28.732L98.0443 28.642C97.9603 28.966 97.8043 29.284 97.5763 29.596C97.3603 29.896 97.0843 30.166 96.7483 30.406C96.4243 30.634 96.0583 30.82 95.6503 30.964C95.2543 31.108 94.8283 31.18 94.3723 31.18ZM94.9843 29.218C95.5003 29.218 95.9563 29.092 96.3523 28.84C96.7483 28.588 97.0543 28.24 97.2703 27.796C97.4983 27.34 97.6123 26.818 97.6123 26.23C97.6123 25.654 97.4983 25.144 97.2703 24.7C97.0543 24.256 96.7483 23.908 96.3523 23.656C95.9563 23.404 95.5003 23.278 94.9843 23.278C94.4683 23.278 94.0123 23.404 93.6163 23.656C93.2323 23.908 92.9323 24.256 92.7163 24.7C92.5003 25.144 92.3923 25.654 92.3923 26.23C92.3923 26.818 92.5003 27.34 92.7163 27.796C92.9323 28.24 93.2323 28.588 93.6163 28.84C94.0123 29.092 94.4683 29.218 94.9843 29.218Z" fill="#151B28"/>
<path d="M102.357 31V17.68H104.589V31H102.357Z" fill="#151B28"/>
<path d="M112.878 31V18.4H114.984L122.292 28.246L121.896 28.318C121.848 27.982 121.806 27.64 121.77 27.292C121.734 26.932 121.698 26.56 121.662 26.176C121.638 25.792 121.614 25.39 121.59 24.97C121.578 24.55 121.566 24.112 121.554 23.656C121.542 23.188 121.536 22.696 121.536 22.18V18.4H123.858V31H121.716L114.372 21.298L114.84 21.172C114.9 21.844 114.948 22.42 114.984 22.9C115.032 23.368 115.068 23.776 115.092 24.124C115.116 24.46 115.134 24.742 115.146 24.97C115.17 25.198 115.182 25.408 115.182 25.6C115.194 25.78 115.2 25.954 115.2 26.122V31H112.878Z" fill="#151B28"/>
<path d="M130.425 31.18C129.645 31.18 128.937 30.964 128.301 30.532C127.665 30.1 127.155 29.512 126.771 28.768C126.387 28.024 126.195 27.178 126.195 26.23C126.195 25.282 126.387 24.436 126.771 23.692C127.155 22.948 127.677 22.366 128.337 21.946C128.997 21.526 129.741 21.316 130.569 21.316C131.049 21.316 131.487 21.388 131.883 21.532C132.279 21.664 132.627 21.856 132.927 22.108C133.227 22.36 133.473 22.648 133.665 22.972C133.869 23.296 134.007 23.644 134.079 24.016L133.593 23.89V21.514H135.825V31H133.575V28.732L134.097 28.642C134.013 28.966 133.857 29.284 133.629 29.596C133.413 29.896 133.137 30.166 132.801 30.406C132.477 30.634 132.111 30.82 131.703 30.964C131.307 31.108 130.881 31.18 130.425 31.18ZM131.037 29.218C131.553 29.218 132.009 29.092 132.405 28.84C132.801 28.588 133.107 28.24 133.323 27.796C133.551 27.34 133.665 26.818 133.665 26.23C133.665 25.654 133.551 25.144 133.323 24.7C133.107 24.256 132.801 23.908 132.405 23.656C132.009 23.404 131.553 23.278 131.037 23.278C130.521 23.278 130.065 23.404 129.669 23.656C129.285 23.908 128.985 24.256 128.769 24.7C128.553 25.144 128.445 25.654 128.445 26.23C128.445 26.818 128.553 27.34 128.769 27.796C128.985 28.24 129.285 28.588 129.669 28.84C130.065 29.092 130.521 29.218 131.037 29.218Z" fill="#151B28"/>
<path d="M141.223 31L137.227 21.514H139.639L142.339 28.606L141.871 28.732L144.715 21.514H147.073L142.879 31H141.223Z" fill="#151B28"/>
<path d="M148.945 31V21.514H151.159V31H148.945ZM150.025 19.498C149.581 19.498 149.233 19.39 148.981 19.174C148.741 18.946 148.621 18.628 148.621 18.22C148.621 17.836 148.747 17.524 148.999 17.284C149.251 17.044 149.593 16.924 150.025 16.924C150.481 16.924 150.829 17.038 151.069 17.266C151.321 17.482 151.447 17.8 151.447 18.22C151.447 18.592 151.321 18.898 151.069 19.138C150.817 19.378 150.469 19.498 150.025 19.498Z" fill="#151B28"/>
<path d="M158.232 35.14C157.524 35.14 156.816 35.032 156.108 34.816C155.412 34.6 154.848 34.318 154.416 33.97L155.208 32.332C155.46 32.512 155.742 32.668 156.054 32.8C156.366 32.932 156.696 33.034 157.044 33.106C157.404 33.178 157.758 33.214 158.106 33.214C158.742 33.214 159.27 33.112 159.69 32.908C160.122 32.716 160.446 32.416 160.662 32.008C160.878 31.612 160.986 31.114 160.986 30.514V28.768L161.31 28.894C161.238 29.266 161.04 29.62 160.716 29.956C160.392 30.292 159.984 30.568 159.492 30.784C159 30.988 158.496 31.09 157.98 31.09C157.08 31.09 156.282 30.88 155.586 30.46C154.902 30.04 154.356 29.47 153.948 28.75C153.552 28.018 153.354 27.178 153.354 26.23C153.354 25.282 153.552 24.442 153.948 23.71C154.344 22.966 154.884 22.384 155.568 21.964C156.264 21.532 157.044 21.316 157.908 21.316C158.268 21.316 158.616 21.358 158.952 21.442C159.288 21.526 159.594 21.646 159.87 21.802C160.158 21.958 160.416 22.132 160.644 22.324C160.872 22.516 161.058 22.72 161.202 22.936C161.346 23.152 161.436 23.362 161.472 23.566L161.004 23.71L161.04 21.514H163.218V30.352C163.218 31.12 163.104 31.798 162.876 32.386C162.648 32.974 162.318 33.472 161.886 33.88C161.454 34.3 160.932 34.612 160.32 34.816C159.708 35.032 159.012 35.14 158.232 35.14ZM158.322 29.2C158.862 29.2 159.336 29.074 159.744 28.822C160.164 28.57 160.488 28.222 160.716 27.778C160.944 27.334 161.058 26.824 161.058 26.248C161.058 25.66 160.938 25.144 160.698 24.7C160.47 24.244 160.152 23.89 159.744 23.638C159.336 23.386 158.862 23.26 158.322 23.26C157.782 23.26 157.308 23.392 156.9 23.656C156.492 23.908 156.168 24.262 155.928 24.718C155.7 25.162 155.586 25.672 155.586 26.248C155.586 26.812 155.7 27.322 155.928 27.778C156.168 28.222 156.492 28.57 156.9 28.822C157.308 29.074 157.782 29.2 158.322 29.2Z" fill="#151B28"/>
<path d="M169.361 31.18C168.581 31.18 167.873 30.964 167.237 30.532C166.601 30.1 166.091 29.512 165.707 28.768C165.323 28.024 165.131 27.178 165.131 26.23C165.131 25.282 165.323 24.436 165.707 23.692C166.091 22.948 166.613 22.366 167.273 21.946C167.933 21.526 168.677 21.316 169.505 21.316C169.985 21.316 170.423 21.388 170.819 21.532C171.215 21.664 171.563 21.856 171.863 22.108C172.163 22.36 172.409 22.648 172.601 22.972C172.805 23.296 172.943 23.644 173.015 24.016L172.529 23.89V21.514H174.761V31H172.511V28.732L173.033 28.642C172.949 28.966 172.793 29.284 172.565 29.596C172.349 29.896 172.073 30.166 171.737 30.406C171.413 30.634 171.047 30.82 170.639 30.964C170.243 31.108 169.817 31.18 169.361 31.18ZM169.973 29.218C170.489 29.218 170.945 29.092 171.341 28.84C171.737 28.588 172.043 28.24 172.259 27.796C172.487 27.34 172.601 26.818 172.601 26.23C172.601 25.654 172.487 25.144 172.259 24.7C172.043 24.256 171.737 23.908 171.341 23.656C170.945 23.404 170.489 23.278 169.973 23.278C169.457 23.278 169.001 23.404 168.605 23.656C168.221 23.908 167.921 24.256 167.705 24.7C167.489 25.144 167.381 25.654 167.381 26.23C167.381 26.818 167.489 27.34 167.705 27.796C167.921 28.24 168.221 28.588 168.605 28.84C169.001 29.092 169.457 29.218 169.973 29.218Z" fill="#151B28"/>
<path d="M178.353 31V19.102H180.567V31H178.353ZM176.481 23.566V21.514H182.637V23.566H176.481Z" fill="#151B28"/>
<path d="M188.574 31.18C187.626 31.18 186.78 30.97 186.036 30.55C185.292 30.118 184.704 29.53 184.272 28.786C183.84 28.042 183.624 27.196 183.624 26.248C183.624 25.3 183.84 24.454 184.272 23.71C184.704 22.966 185.292 22.384 186.036 21.964C186.78 21.532 187.626 21.316 188.574 21.316C189.51 21.316 190.35 21.532 191.094 21.964C191.838 22.384 192.42 22.966 192.84 23.71C193.272 24.454 193.488 25.3 193.488 26.248C193.488 27.196 193.272 28.042 192.84 28.786C192.42 29.53 191.838 30.118 191.094 30.55C190.35 30.97 189.51 31.18 188.574 31.18ZM188.574 29.218C189.09 29.218 189.546 29.086 189.942 28.822C190.35 28.558 190.668 28.204 190.896 27.76C191.136 27.316 191.25 26.812 191.238 26.248C191.25 25.672 191.136 25.162 190.896 24.718C190.668 24.274 190.35 23.926 189.942 23.674C189.546 23.41 189.09 23.278 188.574 23.278C188.058 23.278 187.59 23.41 187.17 23.674C186.762 23.926 186.444 24.28 186.216 24.736C185.988 25.18 185.874 25.684 185.874 26.248C185.874 26.812 185.988 27.316 186.216 27.76C186.444 28.204 186.762 28.558 187.17 28.822C187.59 29.086 188.058 29.218 188.574 29.218Z" fill="#151B28"/>
<path d="M195.468 31V21.514H197.646L197.682 24.538L197.376 23.854C197.508 23.374 197.736 22.942 198.06 22.558C198.384 22.174 198.756 21.874 199.176 21.658C199.608 21.43 200.058 21.316 200.526 21.316C200.73 21.316 200.922 21.334 201.102 21.37C201.294 21.406 201.45 21.448 201.57 21.496L200.976 23.926C200.844 23.854 200.682 23.794 200.49 23.746C200.298 23.698 200.106 23.674 199.914 23.674C199.614 23.674 199.326 23.734 199.05 23.854C198.786 23.962 198.552 24.118 198.348 24.322C198.144 24.526 197.982 24.766 197.862 25.042C197.754 25.306 197.7 25.606 197.7 25.942V31H195.468Z" fill="#151B28"/>
<path fill-rule="evenodd" clip-rule="evenodd" d="M24 41C33.3888 41 41 33.3888 41 24C41 14.6112 33.3888 7 24 7C14.6112 7 7 14.6112 7 24C7 33.3888 14.6112 41 24 41ZM24 39C32.2843 39 39 32.2843 39 24C39 15.7157 32.2843 9 24 9C15.7157 9 9 15.7157 9 24C9 32.2843 15.7157 39 24 39Z" fill="#151B28"/>
<circle cx="24" cy="24" r="15" fill="white"/>
<rect x="23" y="10" width="2" height="4" rx="1" fill="#151B28"/>
<rect x="10" y="25" width="2" height="4" rx="1" transform="rotate(-90 10 25)" fill="#151B28"/>
<rect x="23" y="34" width="2" height="4" rx="1" fill="#151B28"/>
<rect x="34" y="25" width="2" height="4" rx="1" transform="rotate(-90 34 25)" fill="#151B28"/>
<path d="M28.8388 17.8608C29.6546 17.5358 30.4631 18.3447 30.1378 19.1603C28.6248 22.9538 27.1221 26.7215 25.6085 30.517C25.2659 31.376 24.0519 31.3459 23.7647 30.4668C23.2802 28.9842 22.8134 27.4952 22.3342 26.0122C22.2739 25.8265 22.1864 25.7278 21.994 25.6659C20.4909 25.1807 18.9731 24.7196 17.4682 24.2267C16.5966 23.9412 16.5738 22.7475 17.4258 22.408C21.2315 20.8917 25.0219 19.3815 28.8388 17.8608Z" fill="#151B28"/>
</svg>
