<svg width="320" height="321" viewBox="0 0 320 321" fill="none" xmlns="http://www.w3.org/2000/svg">
<path d="M160 150L160 321V321C71.6344 321 -4.34341e-06 249.366 -4.80825e-07 161L0 150L160 150Z" fill="#F1D7B2"/>
<path d="M160 171L160 0V0C248.366 -3.86258e-06 320 71.6344 320 160L320 171L160 171Z" fill="#F1D7B2"/>
<path d="M160 159L160 73.4998V73.4998C204.183 73.4998 240 109.317 240 153.5L240 159L160 159Z" fill="#EFB4D4"/>
<path d="M160 158L160 243.5V243.5C115.817 243.5 80 207.683 80 163.5L80 158L160 158Z" fill="#EFB4D4"/>
<path d="M155 165H240.5V165C240.5 209.183 204.683 245 160.5 245H155V165Z" fill="#CCD4FF"/>
<path d="M159.5 153L74 153V153C74 108.817 109.817 73.0002 154 73.0002L159.5 73.0002L159.5 153Z" fill="#CCD4FF"/>
<path d="M57.1349 133.993L208.072 101.4C213.19 100.295 217.169 105.816 214.502 110.321L136.163 242.645C133.053 247.897 125 245.692 125 239.588V162.549C125 159.631 122.901 157.136 120.026 156.637L57.3758 145.77C50.8796 144.643 50.6903 135.385 57.1349 133.993Z" fill="black" fill-opacity="0.39"/>
<path d="M55.5229 109.34L218.982 51.1672C224.135 49.3331 228.854 54.788 226.298 59.624L143.304 216.617C140.38 222.149 132 220.07 132 213.812V139.049C132 136.131 129.901 133.636 127.026 133.137L56.5091 120.905C50.4297 119.85 49.7098 111.409 55.5229 109.34Z" fill="white" stroke="#F1D7B2"/>
</svg>
